<svg width="273" height="104" viewBox="0 0 273 104" fill="none" xmlns="http://www.w3.org/2000/svg">
<path d="M0.575875 44L13.8261 2.1725H30.5279L43.5734 44H30.3962L28.495 36.0879H15.4349L13.4898 44H0.575875ZM26.1989 26.5524L22.0308 9.251L17.7749 26.5524H26.1989ZM76.3914 0.709999V44H64.7938V34.3767C64.199 37.838 63.0827 40.4559 61.4447 42.2304C59.8067 43.9951 57.6714 44.8775 55.0389 44.8775C53.1962 44.8775 51.5143 44.468 49.9933 43.649C48.4723 42.8202 47.1658 41.66 46.0738 40.1682C44.9818 38.6667 44.1335 36.8727 43.529 34.7862C42.9343 32.6997 42.6369 30.3939 42.6369 27.8686C42.6369 25.3434 42.9343 23.0375 43.529 20.951C44.1335 18.8645 44.9818 17.0754 46.0738 15.5836C47.1658 14.0919 48.4723 12.9365 49.9933 12.1175C51.5143 11.2887 53.1962 10.8744 55.0389 10.8744C57.6714 10.8744 59.8067 11.7567 61.4447 13.5215C63.0827 15.2862 64.199 17.8992 64.7938 21.3605V0.709999H76.3914ZM64.7938 27.8686C64.7938 25.4994 64.355 23.72 63.4775 22.5305C62.6 21.341 61.2887 20.7462 59.5434 20.7462C57.8079 20.7462 56.5063 21.3361 55.6385 22.5159C54.7805 23.6956 54.3515 25.4799 54.3515 27.8686C54.3515 32.6266 56.0822 35.0056 59.5434 35.0056C61.2887 35.0056 62.6 34.4109 63.4775 33.2214C64.355 32.0319 64.7938 30.2476 64.7938 27.8686ZM112.881 11.7519L102.732 44H87.6678L77.6496 11.7519H89.9346L95.3459 35.9855L100.86 11.7519H112.881ZM111.706 27.8686C111.706 25.2654 112.125 22.9205 112.964 20.834C113.812 18.7377 114.987 16.9535 116.488 15.4812C117.999 13.9992 119.789 12.8634 121.856 12.0736C123.923 11.2741 126.185 10.8744 128.642 10.8744C131.099 10.8744 133.361 11.2741 135.428 12.0736C137.504 12.8634 139.293 13.9992 140.795 15.4812C142.296 16.9535 143.466 18.7377 144.305 20.834C145.153 22.9205 145.577 25.2654 145.577 27.8686C145.577 29.6041 145.387 31.2275 145.007 32.7387C144.627 34.25 144.081 35.6394 143.369 36.9069C142.657 38.1646 141.799 39.2907 140.795 40.2852C139.791 41.27 138.66 42.1036 137.402 42.7861C136.144 43.4589 134.779 43.9756 133.307 44.3364C131.835 44.6971 130.28 44.8775 128.642 44.8775C127.004 44.8775 125.448 44.6971 123.976 44.3364C122.504 43.9756 121.139 43.4589 119.881 42.7861C118.633 42.1036 117.502 41.27 116.488 40.2852C115.484 39.2907 114.626 38.1646 113.914 36.9069C113.202 35.6394 112.656 34.25 112.276 32.7387C111.896 31.2275 111.706 29.6041 111.706 27.8686ZM123.42 27.8686C123.42 30.2476 123.864 32.027 124.751 33.2067C125.639 34.3865 126.935 34.9764 128.642 34.9764C130.367 34.9764 131.669 34.3865 132.546 33.2067C133.424 32.027 133.863 30.2476 133.863 27.8686C133.863 25.4896 133.424 23.7151 132.546 22.5451C131.669 21.3654 130.367 20.7755 128.642 20.7755C126.935 20.7755 125.639 21.3654 124.751 22.5451C123.864 23.7151 123.42 25.4896 123.42 27.8686ZM158.897 27.8686C158.897 30.2281 159.341 32.0026 160.228 33.1921C161.125 34.3816 162.422 34.9764 164.119 34.9764C164.782 34.9764 165.362 34.8837 165.859 34.6985C166.366 34.5035 166.8 34.2256 167.161 33.8649C167.531 33.4944 167.833 33.041 168.067 32.5047C168.311 31.9685 168.501 31.3591 168.638 30.6766H180.177C179.914 32.8314 179.333 34.7862 178.436 36.5412C177.539 38.2865 176.389 39.7782 174.985 41.0165C173.581 42.245 171.958 43.1956 170.115 43.8684C168.272 44.5411 166.273 44.8775 164.119 44.8775C162.481 44.8775 160.925 44.6971 159.453 44.3364C157.981 43.9756 156.616 43.4589 155.358 42.7861C154.1 42.1036 152.969 41.27 151.965 40.2852C150.961 39.2907 150.103 38.1646 149.391 36.9069C148.679 35.6394 148.133 34.25 147.753 32.7387C147.373 31.2275 147.183 29.6041 147.183 27.8686C147.183 25.2654 147.602 22.9205 148.441 20.834C149.289 18.7377 150.464 16.9535 151.965 15.4812C153.467 13.9992 155.251 12.8634 157.318 12.0736C159.395 11.2741 161.662 10.8744 164.119 10.8744C166.273 10.8744 168.272 11.2107 170.115 11.8835C171.958 12.5465 173.581 13.4971 174.985 14.7354C176.389 15.9736 177.539 17.4654 178.436 19.2106C179.333 20.9559 179.914 22.9107 180.177 25.0752H168.638C168.501 24.383 168.311 23.7736 168.067 23.2471C167.833 22.7109 167.531 22.2624 167.161 21.9016C166.8 21.5311 166.366 21.2532 165.859 21.068C165.362 20.873 164.782 20.7755 164.119 20.7755C162.422 20.7755 161.125 21.3702 160.228 22.5597C159.341 23.7395 158.897 25.5091 158.897 27.8686ZM182.09 24.1539C182.09 22.0966 182.466 20.249 183.217 18.611C183.967 16.973 185.045 15.5836 186.449 14.4429C187.862 13.2924 189.574 12.41 191.582 11.7957C193.6 11.1815 195.872 10.8744 198.397 10.8744C200.942 10.8744 203.204 11.1864 205.183 11.8104C207.172 12.4344 208.849 13.346 210.214 14.5452C211.589 15.7347 212.632 17.1972 213.344 18.9327C214.066 20.6682 214.426 22.6475 214.426 24.8705V44H202.829V36.161C202.497 37.5065 201.985 38.7155 201.293 39.788C200.601 40.8605 199.762 41.777 198.778 42.5375C197.793 43.2882 196.672 43.8635 195.414 44.2633C194.166 44.6728 192.815 44.8775 191.363 44.8775C189.832 44.8775 188.438 44.6533 187.18 44.2048C185.922 43.7562 184.845 43.1274 183.948 42.3181C183.051 41.4991 182.359 40.5192 181.871 39.3785C181.384 38.228 181.14 36.9507 181.14 35.5467C181.14 33.9672 181.457 32.5632 182.09 31.3347C182.724 30.1062 183.646 29.0679 184.855 28.2196C186.073 27.3714 187.565 26.7279 189.33 26.2891C191.095 25.8406 193.103 25.6164 195.355 25.6164H202.829V24.8705C202.829 23.0765 202.434 21.7017 201.644 20.7462C200.854 19.7907 199.675 19.313 198.105 19.313C196.564 19.313 195.433 19.7371 194.712 20.5854C193.99 21.4239 193.63 22.6134 193.63 24.1539H182.09ZM197.213 31.2909C195.76 31.2909 194.663 31.5297 193.922 32.0075C193.181 32.4852 192.811 33.1921 192.811 34.1281C192.811 35.0349 193.147 35.7417 193.82 36.2487C194.502 36.746 195.453 36.9946 196.672 36.9946C197.53 36.9946 198.329 36.8727 199.07 36.629C199.821 36.3852 200.474 36.0537 201.03 35.6345C201.586 35.2055 202.024 34.7082 202.346 34.1427C202.668 33.5675 202.829 32.9581 202.829 32.3146V31.2909H197.213ZM238.962 43.7514C237.47 44.1219 236.08 44.3998 234.793 44.585C233.506 44.78 232.302 44.8775 231.181 44.8775C223.391 44.8775 219.496 40.4461 219.496 31.5834V20.7024H215.81V11.7519H219.496V4.32237H231.093V11.7519H238.962V20.7024H231.093V31.6126C231.093 32.3926 231.162 33.0654 231.298 33.6309C231.435 34.1866 231.644 34.6449 231.927 35.0056C232.219 35.3566 232.59 35.6199 233.038 35.7954C233.497 35.9611 234.043 36.044 234.676 36.044C235.193 36.044 235.793 35.9904 236.475 35.8831C237.168 35.7661 237.996 35.5906 238.962 35.3566V43.7514ZM272.566 32.8411C272.098 34.7034 271.372 36.3804 270.387 37.8721C269.412 39.3541 268.227 40.6167 266.833 41.66C265.439 42.6935 263.859 43.4881 262.095 44.0439C260.33 44.5996 258.434 44.8775 256.406 44.8775C254.748 44.8775 253.183 44.6923 251.711 44.3218C250.239 43.9513 248.883 43.4199 247.645 42.7276C246.407 42.0256 245.295 41.1725 244.311 40.1682C243.326 39.164 242.487 38.033 241.795 36.7752C241.113 35.5175 240.586 34.1427 240.216 32.651C239.855 31.1495 239.675 29.5554 239.675 27.8686C239.675 26.1819 239.855 24.5926 240.216 23.1009C240.576 21.5994 241.093 20.2197 241.766 18.962C242.448 17.7042 243.277 16.5781 244.252 15.5836C245.227 14.5794 246.329 13.7311 247.557 13.0389C248.786 12.3369 250.127 11.8006 251.579 11.4301C253.042 11.0596 254.597 10.8744 256.245 10.8744C258.702 10.8744 260.939 11.2839 262.958 12.1029C264.986 12.9121 266.716 14.0626 268.149 15.5544C269.592 17.0461 270.709 18.8352 271.499 20.9217C272.298 23.0082 272.698 25.3239 272.698 27.8686C272.698 28.2781 272.688 28.6925 272.669 29.1117C272.649 29.531 272.615 29.9356 272.566 30.3256H250.556C250.78 32.2171 251.418 33.6747 252.471 34.6985C253.534 35.7125 254.958 36.2195 256.742 36.2195C258.029 36.2195 259.106 35.9416 259.974 35.3859C260.842 34.8204 261.524 33.9721 262.022 32.8411H272.566ZM261.992 24.6219C261.671 22.8181 261.042 21.4824 260.106 20.6146C259.17 19.7371 257.907 19.2984 256.318 19.2984C254.69 19.2984 253.398 19.7469 252.442 20.6439C251.496 21.5409 250.892 22.8669 250.629 24.6219H261.992ZM41.5844 61.1725L28.5096 103H13.6799L0.809875 61.1725H12.3198L21.2264 95.1171L30.3085 61.1725H41.5844ZM39.1283 86.8686C39.1283 85.1429 39.3135 83.5292 39.684 82.0277C40.0545 80.5165 40.5859 79.132 41.2782 77.8742C41.9704 76.6067 42.8089 75.4806 43.7937 74.4959C44.7882 73.5014 45.8997 72.6629 47.1282 71.9804C48.3664 71.2979 49.7119 70.7762 51.1647 70.4155C52.6174 70.0547 54.153 69.8744 55.7715 69.8744C57.3998 69.8744 58.9403 70.0547 60.393 70.4155C61.8458 70.7762 63.1864 71.2979 64.4149 71.9804C65.6434 72.6629 66.75 73.5014 67.7348 74.4959C68.7293 75.4806 69.5727 76.6067 70.2649 77.8742C70.9572 79.132 71.4885 80.5165 71.859 82.0277C72.2295 83.5292 72.4148 85.1429 72.4148 86.8686C72.4148 88.5944 72.2295 90.2129 71.859 91.7241C71.4885 93.2354 70.9572 94.6199 70.2649 95.8776C69.5727 97.1354 68.7293 98.2615 67.7348 99.256C66.75 100.241 65.6434 101.079 64.4149 101.771C63.1864 102.454 61.8458 102.976 60.393 103.336C58.9403 103.697 57.3998 103.878 55.7715 103.878C54.153 103.878 52.6174 103.697 51.1647 103.336C49.7119 102.976 48.3664 102.454 47.1282 101.771C45.8997 101.079 44.7882 100.241 43.7937 99.256C42.8089 98.2615 41.9704 97.1354 41.2782 95.8776C40.5859 94.6199 40.0545 93.2354 39.684 91.7241C39.3135 90.2129 39.1283 88.5944 39.1283 86.8686ZM49.395 86.8686C49.395 88.2044 49.5364 89.389 49.8192 90.4225C50.1019 91.4462 50.5163 92.3091 51.0623 93.0111C51.6083 93.7034 52.2762 94.2299 53.0659 94.5906C53.8557 94.9416 54.7624 95.1171 55.7862 95.1171C56.8099 95.1171 57.7167 94.9416 58.5064 94.5906C59.2962 94.2299 59.9592 93.7034 60.4954 93.0111C61.0414 92.3091 61.4509 91.4462 61.7239 90.4225C62.0067 89.389 62.148 88.2044 62.148 86.8686C62.148 85.5329 62.0067 84.3531 61.7239 83.3294C61.4509 82.2959 61.0414 81.433 60.4954 80.7407C59.9592 80.0485 59.2962 79.5269 58.5064 79.1759C57.7167 78.8151 56.8099 78.6347 55.7862 78.6347C54.7624 78.6347 53.8557 78.8151 53.0659 79.1759C52.2762 79.5269 51.6083 80.0485 51.0623 80.7407C50.5163 81.433 50.1019 82.2959 49.8192 83.3294C49.5364 84.3531 49.395 85.5329 49.395 86.8686ZM85.2578 67.549H74.9618V59.71H85.2578V67.549ZM85.1993 103H75.0203V70.7519H85.1993V103ZM98.126 86.8686C98.126 88.2044 98.2674 89.389 98.5501 90.4225C98.8329 91.4462 99.2424 92.3091 99.7786 93.0111C100.325 93.7034 100.992 94.2299 101.782 94.5906C102.582 94.9416 103.488 95.1171 104.502 95.1171C105.341 95.1171 106.077 94.9952 106.711 94.7515C107.345 94.5077 107.891 94.1616 108.349 93.7131C108.807 93.2646 109.182 92.7235 109.475 92.0897C109.767 91.456 109.987 90.7491 110.133 89.9691H120.268C120.015 92.0459 119.454 93.9374 118.586 95.6436C117.719 97.3499 116.597 98.8172 115.223 100.046C113.858 101.264 112.268 102.21 110.455 102.883C108.641 103.546 106.657 103.878 104.502 103.878C102.884 103.878 101.348 103.697 99.8956 103.336C98.4429 102.976 97.0974 102.454 95.8591 101.771C94.6306 101.079 93.5191 100.241 92.5246 99.256C91.5399 98.2615 90.7014 97.1354 90.0091 95.8776C89.3169 94.6199 88.7855 93.2354 88.415 91.7241C88.0445 90.2129 87.8592 88.5944 87.8592 86.8686C87.8592 85.1429 88.0445 83.5292 88.415 82.0277C88.7855 80.5165 89.3169 79.132 90.0091 77.8742C90.7014 76.6067 91.5399 75.4806 92.5246 74.4959C93.5191 73.5014 94.6306 72.6629 95.8591 71.9804C97.0974 71.2979 98.4429 70.7762 99.8956 70.4155C101.348 70.0547 102.884 69.8744 104.502 69.8744C106.657 69.8744 108.641 70.2107 110.455 70.8835C112.278 71.5465 113.872 72.4874 115.237 73.7061C116.602 74.9249 117.719 76.3922 118.586 78.1082C119.454 79.8145 120.015 81.706 120.268 83.7827H110.133C109.987 83.0027 109.767 82.2959 109.475 81.6621C109.182 81.0284 108.807 80.4872 108.349 80.0387C107.891 79.5902 107.345 79.2441 106.711 79.0004C106.077 78.7566 105.341 78.6347 104.502 78.6347C103.488 78.6347 102.582 78.8151 101.782 79.1759C100.992 79.5269 100.325 80.0485 99.7786 80.7407C99.2424 81.433 98.8329 82.2959 98.5501 83.3294C98.2674 84.3531 98.126 85.5329 98.126 86.8686ZM154.572 91.9581C154.124 93.8106 153.422 95.473 152.466 96.9452C151.511 98.4175 150.35 99.6704 148.985 100.704C147.62 101.728 146.07 102.512 144.335 103.059C142.609 103.605 140.751 103.878 138.762 103.878C137.124 103.878 135.579 103.692 134.126 103.322C132.674 102.951 131.333 102.42 130.104 101.728C128.886 101.026 127.789 100.177 126.814 99.1829C125.849 98.1786 125.025 97.0476 124.342 95.7899C123.669 94.5224 123.153 93.1379 122.792 91.6364C122.431 90.1349 122.251 88.5407 122.251 86.854C122.251 85.1672 122.426 83.578 122.777 82.0862C123.138 80.5847 123.65 79.2051 124.313 77.9474C124.986 76.6896 125.8 75.5635 126.755 74.569C127.721 73.5647 128.808 72.7165 130.017 72.0242C131.235 71.332 132.561 70.8006 133.995 70.4301C135.438 70.0596 136.968 69.8744 138.587 69.8744C140.205 69.8744 141.726 70.0596 143.15 70.4301C144.573 70.7909 145.88 71.3174 147.069 72.0096C148.269 72.6921 149.341 73.5306 150.287 74.5251C151.233 75.5196 152.032 76.6457 152.685 77.9035C153.348 79.1612 153.851 80.5409 154.192 82.0424C154.543 83.5341 154.718 85.1282 154.718 86.8247C154.718 87.634 154.674 88.4432 154.587 89.2525H131.918C132.045 90.325 132.298 91.2805 132.678 92.119C133.059 92.9575 133.551 93.6692 134.156 94.2542C134.76 94.8295 135.472 95.2731 136.291 95.5851C137.12 95.8874 138.041 96.0385 139.055 96.0385C140.556 96.0385 141.809 95.7021 142.814 95.0294C143.828 94.3469 144.622 93.3231 145.197 91.9581H154.572ZM145.154 83.695C144.461 79.5902 142.297 77.5379 138.66 77.5379C136.788 77.5379 135.287 78.0644 134.156 79.1174C133.034 80.1704 132.318 81.6962 132.006 83.695H145.154Z" fill="black"/>
</svg>
