<svg width="17" height="19" viewBox="0 0 17 19" fill="none" xmlns="http://www.w3.org/2000/svg">
<path d="M6.70099 16.8189C7.29664 17.0765 7.86009 17.2053 8.39133 17.2053C11.4179 17.2053 12.9311 15.857 12.9311 13.1605C12.9311 12.2429 12.7661 11.5185 12.4361 10.9872C12.2188 10.633 11.9712 10.3352 11.6935 10.0938C11.4158 9.85227 11.1442 9.66513 10.8786 9.53232C10.6129 9.3995 10.2889 9.29889 9.9066 9.23047C9.52427 9.16205 9.1862 9.11979 8.8924 9.10369C8.5986 9.08759 8.21828 9.07955 7.75142 9.07955C7.16383 9.07955 6.75734 9.11979 6.53196 9.20028C6.53196 9.62689 6.52995 10.2668 6.52592 11.12C6.5219 11.9732 6.51989 12.6091 6.51989 13.0277C6.51989 13.0921 6.51586 13.3638 6.50781 13.8427C6.49976 14.3216 6.49775 14.71 6.50178 15.0078C6.5058 15.3056 6.52391 15.6417 6.55611 16.016C6.5883 16.3903 6.6366 16.6579 6.70099 16.8189ZM6.53196 7.81179C6.87003 7.86813 7.30871 7.89631 7.84801 7.89631C8.50805 7.89631 9.08357 7.84399 9.57457 7.73935C10.0656 7.63471 10.5083 7.45561 10.9027 7.20206C11.2971 6.94851 11.5969 6.5883 11.8022 6.12145C12.0075 5.65459 12.1101 5.0831 12.1101 4.40696C12.1101 3.84351 11.9934 3.3505 11.7599 2.92791C11.5265 2.50533 11.2086 2.17531 10.8061 1.93786C10.4036 1.7004 9.96899 1.52533 9.50213 1.41264C9.03527 1.29995 8.53622 1.24361 8.00497 1.24361C7.60251 1.24361 7.07931 1.29593 6.43537 1.40057C6.43537 1.80303 6.45147 2.41075 6.48366 3.22372C6.51586 4.0367 6.53196 4.64844 6.53196 5.05895C6.53196 5.27628 6.52995 5.59825 6.52592 6.02486C6.5219 6.45147 6.51989 6.76941 6.51989 6.97869C6.51989 7.34896 6.52391 7.62666 6.53196 7.81179ZM0 18.5455L0.0241477 17.4105C0.144886 17.3783 0.486979 17.3139 1.05043 17.2173C1.61387 17.1207 2.04048 17.0121 2.33026 16.8913C2.3866 16.7947 2.43691 16.6861 2.48118 16.5653C2.52545 16.4446 2.55966 16.3098 2.58381 16.1609C2.60795 16.012 2.63009 15.8812 2.65021 15.7685C2.67034 15.6558 2.68241 15.5049 2.68643 15.3157C2.69046 15.1265 2.69247 14.9897 2.69247 14.9052V14.1143C2.69247 6.20999 2.60393 2.08475 2.42685 1.73864C2.39465 1.67424 2.30611 1.61589 2.16122 1.56357C2.01634 1.51125 1.83724 1.46697 1.62393 1.43075C1.41063 1.39453 1.21141 1.36636 1.02628 1.34624C0.841146 1.32611 0.645952 1.308 0.440696 1.2919C0.23544 1.2758 0.112689 1.26373 0.0724432 1.25568L0.0241477 0.253551C0.812973 0.237453 2.18134 0.19117 4.12926 0.114702C6.07718 0.0382339 7.57836 0 8.63281 0C8.81794 0 9.09363 0.00201231 9.45987 0.00603693C9.82611 0.0100616 10.0978 0.0120739 10.2749 0.0120739C10.8383 0.0120739 11.3877 0.0643939 11.9229 0.169034C12.4582 0.273674 12.9754 0.442708 13.4744 0.676136C13.9735 0.909564 14.4081 1.19531 14.7784 1.53338C15.1487 1.87145 15.4465 2.29202 15.6719 2.7951C15.8973 3.29818 16.0099 3.85156 16.0099 4.45526C16.0099 4.87382 15.9435 5.25817 15.8107 5.60831C15.6779 5.95845 15.521 6.24822 15.3398 6.47763C15.1587 6.70703 14.8991 6.93845 14.5611 7.17188C14.223 7.4053 13.9292 7.58641 13.6797 7.7152C13.4302 7.84399 13.0921 8.00497 12.6655 8.19815C13.9051 8.47988 14.9374 9.01918 15.7624 9.81605C16.5875 10.6129 17 11.611 17 12.8104C17 13.6153 16.8591 14.3377 16.5774 14.9776C16.2957 15.6175 15.9194 16.1428 15.4485 16.5533C14.9776 16.9638 14.4222 17.3079 13.7823 17.5856C13.1424 17.8633 12.4844 18.0585 11.8082 18.1712C11.1321 18.2839 10.4238 18.3402 9.68324 18.3402C9.32907 18.3402 8.79782 18.3281 8.08949 18.304C7.38116 18.2798 6.84991 18.2678 6.49574 18.2678C5.64252 18.2678 4.40696 18.312 2.78906 18.4006C1.17116 18.4891 0.241477 18.5374 0 18.5455Z" fill="black"/>
</svg>
