<svg width="21" height="18" viewBox="0 0 21 18" fill="none" xmlns="http://www.w3.org/2000/svg">
<path d="M7.125 0.75H19.875C20.1734 0.75 20.4595 0.868526 20.6705 1.0795C20.8815 1.29048 21 1.57663 21 1.875C21 2.17337 20.8815 2.45952 20.6705 2.6705C20.4595 2.88147 20.1734 3 19.875 3H7.125C6.82663 3 6.54048 2.88147 6.3295 2.6705C6.11853 2.45952 6 2.17337 6 1.875C6 1.57663 6.11853 1.29048 6.3295 1.0795C6.54048 0.868526 6.82663 0.75 7.125 0.75ZM7.125 8.25H19.875C20.1734 8.25 20.4595 8.36853 20.6705 8.5795C20.8815 8.79048 21 9.07663 21 9.375C21 9.67337 20.8815 9.95952 20.6705 10.1705C20.4595 10.3815 20.1734 10.5 19.875 10.5H7.125C6.82663 10.5 6.54048 10.3815 6.3295 10.1705C6.11853 9.95952 6 9.67337 6 9.375C6 9.07663 6.11853 8.79048 6.3295 8.5795C6.54048 8.36853 6.82663 8.25 7.125 8.25ZM7.125 15.75H19.875C20.1734 15.75 20.4595 15.8685 20.6705 16.0795C20.8815 16.2905 21 16.5766 21 16.875C21 17.1734 20.8815 17.4595 20.6705 17.6705C20.4595 17.8815 20.1734 18 19.875 18H7.125C6.82663 18 6.54048 17.8815 6.3295 17.6705C6.11853 17.4595 6 17.1734 6 16.875C6 16.5766 6.11853 16.2905 6.3295 16.0795C6.54048 15.8685 6.82663 15.75 7.125 15.75ZM1.5 18C1.10218 18 0.720644 17.842 0.43934 17.5607C0.158035 17.2794 0 16.8978 0 16.5C0 16.1022 0.158035 15.7206 0.43934 15.4393C0.720644 15.158 1.10218 15 1.5 15C1.89782 15 2.27936 15.158 2.56066 15.4393C2.84196 15.7206 3 16.1022 3 16.5C3 16.8978 2.84196 17.2794 2.56066 17.5607C2.27936 17.842 1.89782 18 1.5 18ZM3 9C3 9.39783 2.84196 9.77936 2.56066 10.0607C2.27936 10.342 1.89782 10.5 1.5 10.5C1.10218 10.5 0.720644 10.342 0.43934 10.0607C0.158035 9.77936 0 9.39783 0 9C0 8.60217 0.158035 8.22064 0.43934 7.93934C0.720644 7.65804 1.10218 7.5 1.5 7.5C1.89782 7.5 2.27936 7.65804 2.56066 7.93934C2.84196 8.22064 3 8.60217 3 9ZM1.5 3C1.10218 3 0.720644 2.84196 0.43934 2.56066C0.158035 2.27936 0 1.89782 0 1.5C0 1.10218 0.158035 0.720644 0.43934 0.43934C0.720644 0.158035 1.10218 0 1.5 0C1.89782 0 2.27936 0.158035 2.56066 0.43934C2.84196 0.720644 3 1.10218 3 1.5C3 1.89782 2.84196 2.27936 2.56066 2.56066C2.27936 2.84196 1.89782 3 1.5 3Z" fill="black"/>
</svg>
