<svg width="19" height="19" viewBox="0 0 19 19" fill="none" xmlns="http://www.w3.org/2000/svg">
<path d="M11.8962 8.00906C11.3297 7.66917 10.7632 7.44258 10.31 7.21599C8.04407 6.19631 7.93078 5.96972 8.04407 5.06335C8.15737 4.15697 8.49726 3.93038 8.72386 3.70378C9.74353 3.1373 11.8962 3.59049 12.6892 3.93038L13.9355 0.758067C13.4823 0.531474 9.74353 -0.828088 7.0244 0.758067C6.11803 1.32455 4.87176 2.45752 4.64517 4.61016C4.41858 6.08302 4.75847 7.21599 5.43825 8.00906H0V9.14203H18.1275V8.00906H11.8962Z" fill="black"/>
<path d="M8.72378 10.2749C8.72378 10.2749 8.83708 10.2749 8.83708 10.3882C11.103 11.4079 11.5562 11.7478 11.3296 13.2206C11.103 14.2403 10.7631 14.4669 10.4232 14.6935C9.17697 15.3733 6.68444 14.6935 5.43818 14.127L4.07861 17.0727C4.4185 17.186 6.68444 18.2057 9.17697 18.2057C10.1966 18.2057 11.2163 17.9791 12.1227 17.5259C13.1424 16.9594 14.3886 15.9398 14.8418 13.6738C15.0684 12.201 14.8418 11.068 14.3886 10.1616H8.72378V10.2749Z" fill="black"/>
</svg>
