<svg width="23" height="23" viewBox="0 0 23 23" fill="none" xmlns="http://www.w3.org/2000/svg">
<path d="M0 7.77778C0 10.5392 2.23858 12.7778 5 12.7778H5.22223C7.98365 12.7778 10.2222 10.5392 10.2222 7.77778V5C10.2222 2.23858 7.98365 0 5.22222 0H5C2.23857 0 0 2.23858 0 5V7.77778ZM0 19.1667C0 21.2838 1.71624 23 3.83333 23H6.38889C8.50598 23 10.2222 21.2838 10.2222 19.1667V19.1667C10.2222 17.0496 8.50598 15.3333 6.38889 15.3333H3.83333C1.71624 15.3333 0 17.0496 0 19.1667V19.1667ZM12.7778 18C12.7778 20.7614 15.0164 23 17.7778 23H18C20.7614 23 23 20.7614 23 18V15.2222C23 12.4608 20.7614 10.2222 18 10.2222H17.7778C15.0164 10.2222 12.7778 12.4608 12.7778 15.2222V18ZM16.6111 0C14.494 0 12.7778 1.71624 12.7778 3.83333V3.83333C12.7778 5.95043 14.494 7.66667 16.6111 7.66667H19.1667C21.2838 7.66667 23 5.95043 23 3.83333V3.83333C23 1.71624 21.2838 0 19.1667 0H16.6111Z" fill="#200E32"/>
</svg>
