<svg width="24" height="24" viewBox="0 0 24 24" fill="none" xmlns="http://www.w3.org/2000/svg">
<path d="M12 0C5.38065 0 0 5.38065 0 12C0 18.6193 5.38065 24 12 24C18.6193 24 24 18.6193 24 12C24 5.38065 18.6193 0 12 0ZM10.8387 17.8065V16.9626C10.8387 16.32 11.3574 15.8013 12 15.8013C12.6426 15.8013 13.1613 16.32 13.1613 16.9626V17.8065C13.1613 18.449 12.6426 18.9677 12 18.9677C11.3574 18.9677 10.8387 18.449 10.8387 17.8065ZM13.1613 13.5793C13.1613 14.2142 12.6426 14.7406 12 14.7406C11.3574 14.7406 10.8387 14.2142 10.8387 13.5793V6.19355C10.8387 5.55095 11.3574 5.03226 12 5.03226C12.6426 5.03226 13.1613 5.55095 13.1613 6.19355V13.5793Z" fill="black"/>
</svg>
