<svg width="21" height="18" viewBox="0 0 21 18" fill="none" xmlns="http://www.w3.org/2000/svg">
<path d="M1.44205 13.5813C1.69351 13.5817 1.94016 13.6518 2.15581 13.784C2.37147 13.9162 2.54809 14.1056 2.66693 14.3321C2.78577 14.5587 2.84239 14.8139 2.83078 15.0707C2.81918 15.3275 2.73978 15.5763 2.60101 15.7906C2.73978 16.005 2.81918 16.2538 2.83078 16.5106C2.84239 16.7674 2.78577 17.0226 2.66693 17.2491C2.54809 17.4757 2.37147 17.6651 2.15581 17.7973C1.94016 17.9295 1.69351 17.9995 1.44205 18C0.88442 18 0.364788 17.7961 0.131096 17.2328C-0.0142493 16.8822 0.0246993 16.4656 0.413236 16.2976C0.563909 16.2322 0.733794 16.2307 0.88556 16.2934C1.03733 16.356 1.15856 16.4777 1.22261 16.6317C1.23563 16.6632 1.25743 16.6901 1.28529 16.7091C1.31316 16.7281 1.34586 16.7383 1.37935 16.7385C1.48765 16.7356 1.59785 16.7132 1.59785 16.5753C1.59785 16.4782 1.5285 16.4365 1.44965 16.4248L1.4012 16.4219C1.24694 16.4215 1.0984 16.3621 0.98483 16.2554C0.871256 16.1487 0.80087 16.0024 0.787527 15.8452C0.774184 15.6881 0.81885 15.5316 0.912733 15.4065C1.00662 15.2813 1.14292 15.1967 1.29481 15.1691L1.4012 15.1594C1.4981 15.1594 1.59785 15.1235 1.59785 15.006C1.59785 14.869 1.48765 14.8457 1.37935 14.8428C1.34603 14.8431 1.31353 14.8534 1.28585 14.8724C1.25817 14.8914 1.23652 14.9182 1.22356 14.9496C1.19194 15.0261 1.14588 15.0954 1.08802 15.1536C1.03016 15.2118 0.961633 15.2578 0.886367 15.2889C0.811101 15.3201 0.730571 15.3357 0.649385 15.335C0.5682 15.3342 0.487952 15.3172 0.413236 15.2847C0.0246993 15.1157 -0.0142493 14.6991 0.131096 14.3495C0.364788 13.7862 0.88442 13.5813 1.44205 13.5813ZM2.05383 7.00176C2.25735 7.10775 2.43399 7.26062 2.56984 7.44833C2.70568 7.63603 2.79701 7.85343 2.83662 8.08339C2.87623 8.31334 2.86303 8.54956 2.79808 8.77341C2.73312 8.99726 2.61818 9.20263 2.46232 9.3733L1.93604 9.94919H2.38252C2.54629 9.94919 2.70334 10.0157 2.81914 10.1341C2.93494 10.2525 3 10.413 3 10.5804C3 10.7479 2.93494 10.9084 2.81914 11.0268C2.70334 11.1452 2.54629 11.2117 2.38252 11.2117H0.622229C0.457368 11.2117 0.299245 11.1448 0.182582 11.0257C0.0659187 10.9066 0.000251696 10.7451 0 10.5766C0 10.3755 0.0275489 10.1891 0.168144 10.0356L1.5589 8.5119C1.69379 8.36428 1.5874 8.05254 1.36605 8.10887C1.28341 8.13023 1.24921 8.1953 1.23876 8.26911L1.23496 8.32641C1.23496 8.49382 1.1699 8.65438 1.0541 8.77276C0.938303 8.89115 0.781245 8.95765 0.617479 8.95765C0.453714 8.95765 0.296656 8.89115 0.180856 8.77276C0.0650559 8.65438 0 8.49382 0 8.32641C0 7.65437 0.417036 7.05032 1.06681 6.88425C1.3993 6.79879 1.74794 6.84541 2.05383 7.00176ZM2.12033 0.635896V3.78241C2.12033 3.94983 2.05527 4.11039 1.93947 4.22877C1.82367 4.34715 1.66662 4.41366 1.50285 4.41366C1.33908 4.41366 1.18203 4.34715 1.06623 4.22877C0.950426 4.11039 0.88537 3.94983 0.88537 3.78241V1.73621C0.746146 1.75861 0.603615 1.73164 0.481452 1.65979C0.359288 1.58795 0.264843 1.47554 0.213803 1.34124C0.162764 1.20694 0.158201 1.05883 0.200873 0.921511C0.243546 0.784193 0.330885 0.665932 0.448385 0.586368L1.15326 0.106621C1.2469 0.0428872 1.35569 0.00629651 1.46805 0.000742416C1.58041 -0.00481168 1.69215 0.0208786 1.79136 0.0750798C1.89058 0.129281 1.97357 0.209965 2.03149 0.308548C2.08942 0.407131 2.12012 0.520895 2.12033 0.635896Z" fill="black"/>
<path d="M7.125 0.75H19.875C20.1734 0.75 20.4595 0.868526 20.6705 1.0795C20.8815 1.29048 21 1.57663 21 1.875C21 2.17337 20.8815 2.45952 20.6705 2.6705C20.4595 2.88147 20.1734 3 19.875 3H7.125C6.82663 3 6.54048 2.88147 6.3295 2.6705C6.11853 2.45952 6 2.17337 6 1.875C6 1.57663 6.11853 1.29048 6.3295 1.0795C6.54048 0.868526 6.82663 0.75 7.125 0.75ZM7.125 8.25H19.875C20.1734 8.25 20.4595 8.36853 20.6705 8.5795C20.8815 8.79048 21 9.07663 21 9.375C21 9.67337 20.8815 9.95952 20.6705 10.1705C20.4595 10.3815 20.1734 10.5 19.875 10.5H7.125C6.82663 10.5 6.54048 10.3815 6.3295 10.1705C6.11853 9.95952 6 9.67337 6 9.375C6 9.07663 6.11853 8.79048 6.3295 8.5795C6.54048 8.36853 6.82663 8.25 7.125 8.25ZM7.125 15.75H19.875C20.1734 15.75 20.4595 15.8685 20.6705 16.0795C20.8815 16.2905 21 16.5766 21 16.875C21 17.1734 20.8815 17.4595 20.6705 17.6705C20.4595 17.8815 20.1734 18 19.875 18H7.125C6.82663 18 6.54048 17.8815 6.3295 17.6705C6.11853 17.4595 6 17.1734 6 16.875C6 16.5766 6.11853 16.2905 6.3295 16.0795C6.54048 15.8685 6.82663 15.75 7.125 15.75Z" fill="black"/>
</svg>
