<svg width="19" height="19" viewBox="0 0 19 19" fill="none" xmlns="http://www.w3.org/2000/svg">
<path d="M18.3342 2.59033e-07H16.5687C16.3219 -0.000262677 16.1216 0.199682 16.1213 0.446654C16.1213 0.453903 16.1215 0.461153 16.1218 0.468402L16.2708 3.55238C14.5178 1.48536 11.9446 0.295127 9.23547 0.298095C4.14627 0.298132 -0.00371617 4.45418 2.49718e-06 9.54673C0.00372116 14.6474 4.13733 18.7812 9.23547 18.7812C11.5226 18.7843 13.729 17.9352 15.424 16.3996C15.6079 16.2349 15.6235 15.9522 15.4589 15.7682C15.4534 15.762 15.4477 15.7559 15.4418 15.7501L14.1757 14.4831C14.0956 14.4029 13.988 14.3562 13.8748 14.3524C13.7615 14.3486 13.651 14.388 13.5657 14.4626C10.8481 16.8552 6.70663 16.5902 4.31557 13.8707C1.9245 11.1513 2.18932 7.00714 4.90698 4.61453C7.62465 2.22192 11.7661 2.48689 14.1571 5.20636C14.3445 5.41954 14.5179 5.64465 14.6762 5.88027L10.8953 5.6988C10.6488 5.68709 10.4394 5.87753 10.4277 6.12424C10.4273 6.13148 10.4271 6.13873 10.4272 6.14598V7.91269C10.4272 8.15966 10.6272 8.35987 10.874 8.35987H18.3343C18.5811 8.35987 18.7812 8.15966 18.7812 7.91269V0.44718C18.7811 0.200207 18.5811 2.59033e-07 18.3342 2.59033e-07Z" fill="black"/>
</svg>
