<svg width="23" height="18" viewBox="0 0 23 18" fill="none" xmlns="http://www.w3.org/2000/svg">
<path d="M22.0909 1.63636H0.818182C0.601187 1.63636 0.393079 1.55016 0.23964 1.39672C0.0862012 1.24328 0 1.03518 0 0.818182C0 0.601187 0.0862012 0.393079 0.23964 0.23964C0.393079 0.0862012 0.601187 0 0.818182 0H22.0909C22.3079 0 22.516 0.0862012 22.6695 0.23964C22.8229 0.393079 22.9091 0.601187 22.9091 0.818182C22.9091 1.03518 22.8229 1.24328 22.6695 1.39672C22.516 1.55016 22.3079 1.63636 22.0909 1.63636Z" fill="black"/>
<path d="M22.0908 5.72718H8.18171C7.96471 5.72718 7.7566 5.64098 7.60316 5.48754C7.44973 5.33411 7.36353 5.126 7.36353 4.909C7.36353 4.69201 7.44973 4.4839 7.60316 4.33046C7.7566 4.17702 7.96471 4.09082 8.18171 4.09082H22.0908C22.3078 4.09082 22.5159 4.17702 22.6693 4.33046C22.8228 4.4839 22.909 4.69201 22.909 4.909C22.909 5.126 22.8228 5.33411 22.6693 5.48754C22.5159 5.64098 22.3078 5.72718 22.0908 5.72718Z" fill="black"/>
<path d="M22.0908 9.81825H8.18171C7.96471 9.81825 7.7566 9.73205 7.60316 9.57861C7.44973 9.42517 7.36353 9.21706 7.36353 9.00007C7.36353 8.78307 7.44973 8.57496 7.60316 8.42152C7.7566 8.26809 7.96471 8.18188 8.18171 8.18188H22.0908C22.3078 8.18188 22.5159 8.26809 22.6693 8.42152C22.8228 8.57496 22.909 8.78307 22.909 9.00007C22.909 9.21706 22.8228 9.42517 22.6693 9.57861C22.5159 9.73205 22.3078 9.81825 22.0908 9.81825Z" fill="black"/>
<path d="M22.0908 13.9091H8.18171C7.96471 13.9091 7.7566 13.8229 7.60316 13.6694C7.44973 13.516 7.36353 13.3079 7.36353 13.0909C7.36353 12.8739 7.44973 12.6658 7.60316 12.5123C7.7566 12.3589 7.96471 12.2727 8.18171 12.2727H22.0908C22.3078 12.2727 22.5159 12.3589 22.6693 12.5123C22.8228 12.6658 22.909 12.8739 22.909 13.0909C22.909 13.3079 22.8228 13.516 22.6693 13.6694C22.5159 13.8229 22.3078 13.9091 22.0908 13.9091Z" fill="black"/>
<path d="M22.0909 17.9999H0.818182C0.601187 17.9999 0.393079 17.9137 0.23964 17.7602C0.0862012 17.6068 0 17.3987 0 17.1817C0 16.9647 0.0862012 16.7566 0.23964 16.6032C0.393079 16.4497 0.601187 16.3635 0.818182 16.3635H22.0909C22.3079 16.3635 22.516 16.4497 22.6695 16.6032C22.8229 16.7566 22.9091 16.9647 22.9091 17.1817C22.9091 17.3987 22.8229 17.6068 22.6695 17.7602C22.516 17.9137 22.3079 17.9999 22.0909 17.9999Z" fill="black"/>
<path d="M1.22735 12.7145C1.06554 12.7138 0.907556 12.6652 0.773388 12.5747C0.639219 12.4843 0.534887 12.3561 0.473584 12.2063C0.412282 12.0566 0.396761 11.892 0.428986 11.7334C0.46121 11.5748 0.539732 11.4294 0.654622 11.3154L2.96189 8.99998L0.654622 6.68453C0.502235 6.53123 0.416701 6.32386 0.416701 6.10771C0.416701 5.89156 0.502235 5.68419 0.654622 5.53089C0.807919 5.3785 1.01529 5.29297 1.23144 5.29297C1.44759 5.29297 1.65496 5.3785 1.80826 5.53089L5.27735 8.99998L1.80826 12.4691C1.73248 12.5464 1.64212 12.6079 1.5424 12.65C1.44269 12.6922 1.3356 12.7141 1.22735 12.7145Z" fill="black"/>
</svg>
