<svg width="19" height="19" viewBox="0 0 19 19" fill="none" xmlns="http://www.w3.org/2000/svg">
<path d="M0.447001 2.59033e-07H2.21254C2.45932 -0.000262677 2.65964 0.199682 2.6599 0.446654C2.6599 0.453903 2.65975 0.461153 2.65942 0.468402L2.51044 3.55238C4.2634 1.48536 6.8366 0.295127 9.54578 0.298095C14.635 0.298132 18.785 4.45418 18.7812 9.54673C18.7775 14.6474 14.6439 18.7812 9.54578 18.7812C7.2586 18.7843 5.0523 17.9352 3.35729 16.3996C3.17338 16.2349 3.15772 15.9522 3.32232 15.7682C3.32785 15.762 3.33355 15.7559 3.33941 15.7501L4.60555 14.4831C4.68566 14.4029 4.79324 14.3562 4.90649 14.3524C5.01975 14.3486 5.13022 14.388 5.21553 14.4626C7.93319 16.8552 12.0746 16.5902 14.4657 13.8707C16.8567 11.1513 16.5919 7.00714 13.8743 4.61453C11.1566 2.22192 7.01517 2.48689 4.62411 5.20636C4.4367 5.41954 4.26331 5.64465 4.10504 5.88027L7.88598 5.6988C8.1325 5.68709 8.34187 5.87753 8.35359 6.12424C8.35393 6.13148 8.35412 6.13873 8.35408 6.14598V7.91269C8.35408 8.15966 8.15402 8.35987 7.9072 8.35987H0.446962C0.20014 8.35987 8.39233e-05 8.15966 8.39233e-05 7.91269V0.44718C0.00012207 0.200207 0.200178 2.59033e-07 0.447001 2.59033e-07Z" fill="black"/>
</svg>
